<svg xmlns="http://www.w3.org/2000/svg" width="250" viewBox="0 0 222 470"><rect width="100%" height="100%" fill="#FFF"/><marker id="a" fill="#555" stroke="#555" markerHeight="14" markerUnits="userSpaceOnUse" markerWidth="10.5" orient="auto" refX="11.5" refY="7" viewBox="0 0 11.5 14"><path stroke-dasharray="1 0" stroke-width="0" d="m0 0 11.5 7L0 14z"/></marker><path fill="#EAD7C1" fill-opacity=".3" stroke="#8E7441" d="M8 95h204.8v148.4H8z"/><text dominant-baseline="middle" font-family="Arial, sans-serif" font-size="14" text-anchor="middle" transform="translate(70 110)">Our Datastore</text><g fill="none" stroke="#555" marker-end="url(#a)"><path stroke-dasharray="0 0 62.5 9" d="M125.4 53v39.2l.2 21.6.2 10.7"/><path stroke-dasharray="0 0 2 2 2 2 2 2 2 2 2 2 2 2 2 2 2 2 2 2 2 2 2 2 2 2 2 2 2 2 2 2 2 2 2 2 2 2 2 2 2 2 2 2 2 2 2 2 2 2 2 2 2 2 2 2 2 2 2 2 9" d="m130.8 322.4 14.8-21.6q9.6-14 9.6-30.8v-.9q0-17.7-8.4-33.4l-14.6-27.5"/><path stroke-dasharray="0 0 37 9" d="M115.4 367.4v46"/></g><path fill="#DDD" d="M-65-15H65v30H-65z" filter="url(#b)" transform="translate(154 287)"/><text dominant-baseline="middle" font-family="Arial, sans-serif" font-size="14" text-anchor="middle" transform="translate(155 290)">Polling for changes</text><path fill="#FAF0E1" stroke="#8E7441" d="M-65.8-22.5H65.8v45H-65.8z" filter="url(#b)" transform="translate(115.4 30.5)"/><text dominant-baseline="middle" font-family="Arial, sans-serif" font-size="14" text-anchor="middle" transform="translate(115 32)">Our Component</text><g fill="#FAF0E1" stroke="#8E7441" stroke-width="1.3"><path d="M-60.3-22v64l2 1.5 2 1.4 2 1.4 2 1.3 2.1 1.3 2 1.2 2 1.2 2 1 2 1 2 .8 2 .7 2 .6 2 .4 2 .3 2.1.2h2l2-.1 2-.3 2-.4 2-.5 2-.7 2-.8 2-1 2-1 2.1-1 2-1.3 2-1.2 2-1.4 2-1.3 2-1.5 2-1.4L4 41l2-1.4 2-1.4 2.1-1.4 2-1.3 2-1.2 2-1.2 2-1 2-1 2-.9 2-.7 2-.6 2-.5 2.1-.3 2-.2h4l2 .2 2 .4v-10h10v-10h10V-42H-40.3v10h-10v10h-10m0 0v64.2m0-64.2v64.2m0 0 2 1.4m-2-1.4 2 1.4m0 0 2 1.4m-2-1.4 2 1.4m0 0 2 1.4m-2-1.4 2 1.4m0 0 2 1.3m-2-1.3 2 1.3m0 0 2.1 1.3m-2-1.3 2 1.3m0 0 2 1.2m-2-1.2 2 1.2m0 0 2 1.2m-2-1.2 2 1.2m0 0 2 1m-2-1 2 1m0 0 2 1m-2-1 2 1m0 0 2 .8m-2-.8 2 .8m0 0 2 .7m-2-.7 2 .7m0 0 2 .6m-2-.6 2 .6m0 0 2 .4m-2-.4 2 .4m0 0 2 .3m-2-.3 2 .3m0 0 2.1.2m-2-.2 2 .2m0 0h2m-2 0h2m0 0 2-.1m-2 .1 2-.1m0 0 2-.3m-2 .3 2-.3m0 0 2-.4m-2 .4 2-.4m0 0 2-.5m-2 .5 2-.5m0 0 2-.7m-2 .7 2-.7m0 0 2-.8m-2 .8 2-.8m0 0 2-1m-2 1 2-1m0 0c.5-.1 1-.4 2-1m-2 1c.7-.2 1.3-.5 2-1m0 0 2.1-1m-2 1 2-1m0 0 2-1.3m-2 1.2 2-1.2m0 0 2-1.2m-2 1.2 2-1.2m0 0 2-1.4M-6 48l2-1.4m0 0 2-1.3m-2 1.3 2-1.3m0 0 2-1.5m-2 1.5 2-1.5m0 0 2-1.4m-2 1.4 2-1.4m0 0L4 41m-2 1.4L4 41m0 0 2-1.4M4 41l2-1.4m0 0 2-1.4m-2 1.4 2-1.4m0 0 2.1-1.4m-2 1.4 2-1.4m0 0 2-1.3m-2 1.3 2-1.3m0 0 2-1.2m-2 1.2 2-1.2m0 0 2-1.2m-2 1.2 2-1.2m0 0 2-1m-2 1 2-1m0 0 2-1m-2 1 2-1m0 0 2-.9m-2 .9 2-.9m0 0 2-.7m-2 .7 2-.7m0 0 2-.6m-2 .6 2-.6m0 0 2-.5m-2 .5 2-.5m0 0 2.1-.3m-2 .3 2-.3m0 0 2-.2m-2 .2 2-.2m0 0h2m-2 0h2m0 0h2m-2 0h2m0 0 2 .2m-2-.2 2 .2m0 0 2 .4m-2-.4 2 .4m0 0v-10m0 10v-10m0 0h10m-10 0h10m0 0v-10m0 10v-10m0 0h10m-10 0h10m0 0V-42m0 50.6V-42m0 0H-40.3m100.5 0H-40.3m0 0v10m0-10v10m0 0h-10m10 0h-10m0 0v10m0-10v10m0 0h-10m10 0h-10" filter="url(#b)" transform="translate(115 169.9)"/><path d="M64.7 147.9h90.5v40.5h10v-50.5H64.7v10m0 0h90.5m-90.5 0h90.5m0 0v40.6m0-40.6v40.6m0 0h10m-10 0h10m0 0v-50.6m0 50.6v-50.6m0 0H64.7m100.5 0H64.7m0 0v10m0-10v10"/></g><text dominant-baseline="middle" font-family="Arial, sans-serif" font-size="14" text-anchor="middle" transform="translate(105 174)">Data Tables</text><path fill="#FAF0E1" stroke="#8E7441" d="M-100-22.5H100v45H-100z" filter="url(#b)" transform="translate(115 345)"/><text dominant-baseline="middle" font-family="Arial, sans-serif" font-size="14" text-anchor="middle" transform="translate(115 346)">Message Generation Service</text><path fill="#FAF0E1" stroke="#8E7441" d="M-80-22.5H80v45H-80z" filter="url(#b)" transform="translate(115 439)"/><text dominant-baseline="middle" font-family="Arial, sans-serif" font-size="14" text-anchor="middle" transform="translate(115 440)">Downstream Service</text><defs><filter id="b"><feDropShadow dx="1" dy="2" flood-color="#b9b9b9" stdDeviation="2"/></filter></defs></svg>