<svg xmlns="http://www.w3.org/2000/svg" xmlns:xlink="http://www.w3.org/1999/xlink" width="400" viewBox="0 0 630 1000"><rect width="100%" height="100%" fill="#FFF"/><path stroke="#999" stroke-width="5" d="M20 495h590"/><path fill="none" stroke="#8F5C74" stroke-width="2" d="M526 95v300M326 95v300M105 95v300m421 200v300M326 595v300M105 595v300"/><path fill="#8F5C74" stroke="#6B2D4A" d="M321 237h10v138h-10zm0 406h10v138h-10z"/><use xlink:href="#a" x="451" y="395"/><use xlink:href="#a" x="251" y="395"/><use xlink:href="#a" x="30" y="395"/><use xlink:href="#a" x="451" y="30"/><use xlink:href="#a" x="251" y="30"/><use xlink:href="#a" x="30" y="30"/><use xlink:href="#a" x="451" y="895"/><use xlink:href="#a" x="251" y="895"/><use xlink:href="#a" x="30" y="895"/><use xlink:href="#a" x="451" y="530"/><use xlink:href="#a" x="251" y="530"/><use xlink:href="#a" x="30" y="530"/><path fill="#FED7E9" stroke="#6B2D4A" d="M80 245h271v38H80zm0 406h271v38H80z" filter="url(#b)"/><path fill="none" stroke="#000" marker-end="url(#c)" d="M106 141h413"/><path fill="none" stroke="#000" marker-end="url(#c)" d="M106 235h209"/><path fill="none" stroke="#000" marker-end="url(#c)" d="M106 329h209"/><path fill="none" stroke="#000" stroke-dasharray="3 3" marker-end="url(#c)" d="M321 375H112"/><path fill="none" stroke="#000" marker-end="url(#c)" d="M76 111h209" transform="translate(30 530)"/><path fill="none" stroke="#000" marker-end="url(#c)" d="M76 205h209" transform="translate(30 530)"/><path fill="none" stroke="#000" stroke-dasharray="3 3" marker-end="url(#c)" d="M291 251H82" transform="translate(30 530)"/><path fill="none" stroke="#000" marker-end="url(#c)" d="M76 345h413" transform="translate(30 530)"/><g font-family="Arial, sans-serif" font-size="16" font-weight="400" text-anchor="middle"><text y="428" alignment-baseline="central" dominant-baseline="central"><tspan x="526" dy="0">Event Ingestion</tspan><tspan x="326" dy="0">Database</tspan><tspan x="105" dy="0">Our Component</tspan></text><text y="63" alignment-baseline="central" dominant-baseline="central"><tspan x="526" dy="0">Event Ingestion</tspan><tspan x="326" dy="0">Database</tspan><tspan x="105" dy="0">Our Component</tspan></text><text y="928" alignment-baseline="central" dominant-baseline="central"><tspan x="526" dy="0">Event Ingestion</tspan><tspan x="326" dy="0">Database</tspan><tspan x="105" dy="0">Our Component</tspan></text><text y="563" alignment-baseline="central" dominant-baseline="central"><tspan x="526" dy="0">Event Ingestion</tspan><tspan x="326" dy="0">Database</tspan><tspan x="105" dy="0">Our Component</tspan></text><text x="216" y="250" alignment-baseline="middle" dominant-baseline="middle" dy="1em"><tspan x="216">Typical CRUD operations...</tspan></text><text x="313" y="110" alignment-baseline="middle" dominant-baseline="middle" dy="1em">Emit the event(s) to ingest</text><text x="211" y="204" alignment-baseline="middle" dominant-baseline="middle" dy="1em">Open Transaction</text><text x="211" y="298" alignment-baseline="middle" dominant-baseline="middle" dy="1em">Commit Transaction</text><text x="217" y="344" alignment-baseline="middle" dominant-baseline="middle" dy="1em">Transaction Committed</text></g><g dominant-baseline="middle" font-family="Arial, sans-serif" font-size="16" font-weight="400" text-anchor="middle"><text x="186" y="126" alignment-baseline="middle" dy="1em" transform="translate(30 530)"><tspan x="186">Typical CRUD operations...</tspan></text><text x="181" y="80" alignment-baseline="middle" dy="1em" transform="translate(30 530)">Open Transaction</text><text x="181" y="174" alignment-baseline="middle" dy="1em" transform="translate(30 530)">Commit Transaction</text><text x="187" y="220" alignment-baseline="middle" dy="1em" transform="translate(30 530)">Transaction Committed</text><text x="283" y="314" alignment-baseline="middle" dy="1em" transform="translate(30 530)">Emit the event(s) to ingest</text></g><path fill="#EFC3CA" fill-opacity=".4" d="M40 150h350v240H40zm0 640h520v100H40z"/><path fill="#F282B5" stroke="#6B2D4A" d="M30 151h150v38H30zm0 640h150v38H30z" filter="url(#b)"/><text x="105" y="156" alignment-baseline="middle" dominant-baseline="middle" dy="1em" font-family="Arial, sans-serif" font-size="16" font-weight="400" text-anchor="middle"><tspan x="105">Key failure point</tspan></text><g dominant-baseline="middle" font-family="Arial, sans-serif" font-size="16" font-weight="400" text-anchor="middle"><text x="186" y="126" alignment-baseline="middle" dy="1em" transform="translate(30 530)"><tspan x="186">Typical CRUD operations...</tspan></text><text x="75" y="266" alignment-baseline="middle" dy="1em" transform="translate(30 530)"><tspan x="75">Key failure point</tspan></text></g><defs><marker id="c" markerHeight="12" markerUnits="userSpaceOnUse" markerWidth="12" orient="auto-start-reverse" refX="7.9" refY="5"><path stroke="#000" d="m-1 0 11 5-10 5z"/></marker><filter id="b"><feDropShadow dx="1" dy="2" flood-color="#b9b9b9" stdDeviation="2"/></filter><rect id="a" width="150" height="65" fill="#FFF0F7" stroke="#8F5C74" filter="url(#b)" rx="6" ry="6"/></defs></svg>