<svg xmlns="http://www.w3.org/2000/svg" width="400" viewBox="0 0 500 433"><rect width="100%" height="100%" fill="#FFF"/><marker id="a" fill="#555" stroke="#555" markerHeight="14" markerUnits="userSpaceOnUse" markerWidth="10.5" orient="auto" refX="11.5" refY="7" viewBox="0 0 11.5 14"><path d="m0 0 11.5 7L0 14z"/></marker><g fill="none" stroke="#555" marker-end="url(#a)"><path d="m174.8 53.5-.3 14-.2 21V99"/><path d="m418.8 53.5-.3 14-.2 21V99"/><path d="M174.3 148v19.2q0 16.3 9.5 29.6l14 19.5"/><path d="m165 282.5-75.2 36.6q-6 2.9-2 8.2l27.6 38.2"/><path d="m163.2 368.7 51.5-39.7q9-7 9.2-18.5l.3-24.1"/><path d="m256 271.7 68.5 39.6q18.5 10.7 32.1 27.2l13.6 16.4"/><path d="M418.3 148v157.5q0 16.5-4 32.5l-3.9 16.1"/></g><path fill="#DDD" d="M-65-15H65v30H-65z" filter="url(#b)" transform="translate(175 184)"/><text dominant-baseline="middle" font-family="Arial, sans-serif" font-size="14" text-anchor="middle" transform="translate(175 184)">Emit Domain Event</text><path fill="#DDD" d="M-80-15H80v30H-80z" filter="url(#b)" transform="translate(84 323)"/><text dominant-baseline="middle" font-family="Arial, sans-serif" font-size="14" text-anchor="middle" transform="translate(84 323)">Rebuild Aggregate State</text><path fill="#DDD" d="M-50-15H50v30H-50z" filter="url(#b)" transform="translate(224 323)"/><text dominant-baseline="middle" font-family="Arial, sans-serif" font-size="14" text-anchor="middle" transform="translate(224 323)">Append Event</text><path fill="#DDD" d="M-60-15H60v30H-60z" filter="url(#b)" transform="translate(343 323)"/><text dominant-baseline="middle" font-family="Arial, sans-serif" font-size="14" text-anchor="middle" transform="translate(343 323)">Build Read Model</text><path fill="#F0FFE9" stroke="#48802D" d="M-22.5 0h140.1l22.5-45H0z" filter="url(#b)" transform="translate(115.5 53)"/><text dominant-baseline="middle" font-family="Arial, sans-serif" font-size="14" text-anchor="middle" transform="translate(175 30)">Command Input</text><path fill="#F0FFE9" stroke="#48802D" d="M-22.5 0h78.6l22.5-45H0z" filter="url(#b)" transform="translate(390.2 53)"/><text dominant-baseline="middle" font-family="Arial, sans-serif" font-size="14" text-anchor="middle" transform="translate(418 30)">Query</text><path fill="#F0FFE9" stroke="#48802D" d="M-88.4-22.5H88.3v45H-88.4z" filter="url(#b)" transform="translate(174.3 125.5)"/><text dominant-baseline="middle" font-family="Arial, sans-serif" font-size="14" text-anchor="middle" transform="translate(174 125)">Our Command Handler</text><path fill="#F0FFE9" stroke="#48802D" d="M-75.1-22.5H75.2v45H-75.1z" filter="url(#b)" transform="translate(418.3 125.5)"/><text dominant-baseline="middle" font-family="Arial, sans-serif" font-size="14" text-anchor="middle" transform="translate(418 125)">Our Query Handler</text><path fill="#F0FFE9" stroke="#48802D" d="M-61.5-22.5H61.6v45H-61.5z" filter="url(#b)" transform="translate(134 391.2)"/><text dominant-baseline="middle" font-family="Arial, sans-serif" font-size="14" text-anchor="middle" transform="translate(134 391.2)">Our Aggregate</text><path fill="#F0FFE9" stroke="#48802D" d="m-79.8 28.1 3.2 1.2 3.2 1 3.2 1.2 3.2 1 3.1 1 3.2 1 3.2.9 3.2.8 3.2.8 3.2.6 3.2.6 3.2.4 3.2.4 3.2.2 3.2.2h3.2l3.2-.1 3.2-.2 3.1-.4 3.2-.4 3.2-.5 3.2-.7 3.2-.7 3.2-.8 3.2-.9 3.2-1 3.2-1 3.2-1 3.2-1 3.2-1.2 3.2-1 3.1-1.2 3.2-1.1 3.2-1.1L32 24l3.2-1 3.2-1 3.2-1 3.2-.8 3.2-.7 3.2-.7 3.2-.6 3.2-.5 3.2-.4 3.1-.2 3.2-.2h6.4l3.2.2 3.2.3V-28H-79.8v56" filter="url(#b)" transform="translate(223.8 247.1)"/><text dominant-baseline="middle" font-family="Arial, sans-serif" font-size="14" text-anchor="middle" transform="translate(223.8 242.7)">Our Event Datastore</text><path fill="#F0FFE9" stroke="#48802D" d="m-65.3 28.1 2.6 1.2 2.6 1 2.6 1.2 2.7 1 2.6 1 2.6 1 2.6.9 2.6.8 2.6.8 2.6.6 2.6.6 2.7.4 2.6.4 2.6.2 2.6.2h2.6l2.6-.1 2.6-.2 2.6-.4 2.6-.4 2.7-.5 2.6-.7 2.6-.7 2.6-.8 2.6-.9 2.6-1 2.6-1 2.6-1 2.6-1 2.7-1.2 2.6-1c.8-.5 1.7-.8 2.6-1.2 1-.5 2-1 2.6-1.1l2.6-1.1 2.6-1.1 2.6-1 2.6-1 2.6-1 2.7-.8 2.6-.7 2.6-.7 2.6-.6 2.6-.5 2.6-.4 2.6-.2 2.6-.2h5.3l2.6.2 2.6.3V-28H-65.3v56" filter="url(#b)" transform="translate(400.1 385.6)"/><text dominant-baseline="middle" font-family="Arial, sans-serif" font-size="14" text-anchor="middle" transform="translate(400.1 381.2)">Queryable View</text><defs><filter id="b"><feDropShadow dx="1" dy="2" flood-color="#b9b9b9" stdDeviation="2"/></filter></defs></svg>