<svg xmlns="http://www.w3.org/2000/svg" viewBox="0 0 420 520" width="400px"><rect width="100%" height="100%" fill="#FFF"/><marker id="b" fill="#555" stroke="#555" markerHeight="14" markerUnits="userSpaceOnUse" markerWidth="10.5" orient="auto" refX="11.5" refY="7" viewBox="0 0 12 14"><path stroke-dasharray="1 0" stroke-width="0" d="m0 0 12 7-12 7z"/></marker><path fill="#DEF1F2" fill-opacity=".3" stroke="#3E8788" d="M8 103h404v198H8z" filter="url(#a)"/><text x="52" y="12" dominant-baseline="middle" font-family="Arial, sans-serif" font-size="14" text-anchor="middle" transform="translate(158 103)">Single Datastore</text><path fill="#DEF1F2" fill-opacity=".3" stroke="#3E8788" d="M28 128h364v148H28z" filter="url(#a)"/><text x="68" y="12" dominant-baseline="middle" font-family="Arial, sans-serif" font-size="14" text-anchor="middle" transform="translate(142 128)">Transactional Commit</text><g fill="none" stroke="#555" marker-end="url(#b)"><path stroke-dasharray="0 0 2 2 2 2 2 2 2 2 2 2 2 2 2 2 2 2 2 2 2 2 2 2 2 2 2 2 2 2 2 2 2 2 2 2 2 2 2 2 2 2 2 2 2 2 2 2 2 2 2 2 2 2 2 2 2 2 2 2 2 2 2 2 2 2 2 2 2 2 2 2 2 2 9" d="m310 372 14-21q10-14 10-31v-31q0-13-6-24l-19-35"/><path d="M294 417v46"/><path d="M123 53v71"/></g><path fill="#DDD" d="M-65-15H65v30H-65z" filter="url(#a)" transform="translate(334 337)"/><text y="1" dominant-baseline="middle" font-family="Arial, sans-serif" font-size="14" text-anchor="middle" transform="translate(334 337)">Polling for changes</text><path fill="#C1E4E5" stroke="#3E8788" d="M-66-23H66v45H-66z" filter="url(#a)" transform="translate(123 31)"/><text y="1" dominant-baseline="middle" font-family="Arial, sans-serif" font-size="14" text-anchor="middle" transform="translate(123 31)">Our Component</text><g transform="translate(123 195)"><path filter="url(#a)" fill="#C1E4E5" stroke="#3E8788" stroke-width="1.3" d="M-60-22v64l2 1 2 2 2 1 2 2 2 1 2 1 2 1 2 1 2 1 2 1 2 1h2a66 66 0 0 0 8 1h6l2-1 2-1 2-1h2l2-1 2-2 2-1 2-1 2-1 2-2 2-1 2-2 2-1 2-1 2-2 2-1 2-1 2-2 2-1 2-1 2-1 2-1 2-1h2l2-1h10l2 1V19h10V9h10v-51H-40v10h-10v10h-10m0 0v64m0-64v64m0 0 2 1m-2-1 2 1m0 0 2 2m-2-2 2 2m0 0 2 1m-2-1 2 1m0 0 2 2m-2-2 2 2m0 0 2 1m-2-1 2 1m0 0 2 1m-2-1 2 1m0 0 2 1m-2-1 2 1m0 0 2 1m-2-1 2 1m0 0 2 1m-2-1 2 1m0 0 2 1m-2-1 2 1m0 0 2 1m-2-1 2 1m0 0h2m-2 0h2m0 0 2 1m-2-1 2 1m0 0h2m-2 0h2m0 0h2m-2 0h2m0 0h2m-2 0h2m0 0h2m-2 0h2m0 0h2m-2 0h2m0 0h2m-2 0h2m0 0 2-1m-2 1 2-1m0 0 2-1m-2 1 2-1m0 0 2-1m-2 1 2-1m0 0h2m-2 0h2m0 0 2-1m-2 1 2-1m0 0 2-2m-2 2 2-2m0 0 2-1m-2 1 2-1m0 0 2-1m-2 1 2-1m0 0 2-1m-2 1 2-1m0 0 2-2m-2 2 2-2m0 0 2-1m-2 1 2-1m0 0 2-2m-2 2 2-2m0 0 2-1m-2 1 2-1m0 0 2-1m-2 1 2-1m0 0 2-2m-2 2 2-2m0 0 2-1m-2 1 2-1m0 0 2-1m-2 1 2-1m0 0 2-2m-2 2 2-2m0 0 2-1m-2 1 2-1m0 0 2-1m-2 1 2-1m0 0 2-1m-2 1 2-1m0 0 2-1m-2 1 2-1m0 0 2-1m-2 1 2-1m0 0h2m-2 0h2m0 0 2-1m-2 1 2-1m0 0h2m-2 0h2m0 0h2m-2 0h2m0 0h2m-2 0h2m0 0h2m-2 0h2m0 0h2m-2 0h2m0 0 2 1m-2-1 2 1m0 0V19m0 10V19m0 0h10m-10 0h10m0 0V9m0 10V9m0 0h10M50 9h10m0 0v-51m0 51v-51m0 0H-40m100 0H-40m0 0v10m0-10v10m0 0h-10m10 0h-10m0 0v10m0-10v10m0 0h-10m10 0h-10"/><path fill="#C1E4E5" stroke="#3E8788" stroke-width="1.3" d="M-50-22h90v41h10v-51H-50v10m0 0h90m-90 0h90m0 0v41m0-41v41m0 0h10m-10 0h10m0 0v-51m0 51v-51m0 0H-50m100 0H-50m0 0v10m0-10v10"/></g><text x="-10" y="-3" dominant-baseline="middle" font-family="Arial, sans-serif" font-size="14" text-anchor="middle" transform="translate(123 202)">Data Tables</text><g transform="translate(294 197)"><path filter="url(#a)" fill="#C1E4E5" d="m-61 28 3 1 2 1 3 1 2 2 2 1 3 1h2l3 1 2 1 3 1h2l2 1h17l3-1h2l3-1 2-1h3l2-1 2-1 3-1 2-1 3-1 2-1 3-2 2-1 2-1 3-1 2-1 3-1 2-1 3-1 2-1 2-1h3l2-1h3l2-1h15v-45H-61v56" stroke="#3E8788" stroke-width="1.3"/></g><text x="45" y="11" dominant-baseline="middle" font-family="Arial, sans-serif" font-size="14" text-anchor="middle" transform="translate(250 180)">&quot;Outbox&quot; Table</text><path fill="#C1E4E5" stroke="#3E8788" d="M-75-23H75v45H-75z" filter="url(#a)" transform="translate(294 395)"/><text dominant-baseline="middle" font-family="Arial, sans-serif" font-size="14" text-anchor="middle" transform="translate(294 395)">Messaging Service</text><path fill="#C1E4E5" stroke="#3E8788" d="M-80-23H80v45H-80z" filter="url(#a)" transform="translate(294 490)"/><text dominant-baseline="middle" font-family="Arial, sans-serif" font-size="14" text-anchor="middle" transform="translate(294 490)">Downstream Service</text><defs><filter id="a"><feDropShadow dx="1" dy="2" flood-color="#b9b9b9" stdDeviation="2"/></filter></defs></svg>