<?xml version="1.0" encoding="UTF-8"?>
<svg id="Layer_1" xmlns="http://www.w3.org/2000/svg" width="1302.799" height="1366.762" version="1.1" viewBox="0 0 1302.799 1366.762">
  <!-- Generator: Adobe Illustrator 29.7.1, SVG Export Plug-In . SVG Version: 2.1.1 Build 8)  -->
  <defs>
    <style>
      .st0 {
        fill: none;
        stroke: #252525;
      }

      .st0, .st1 {
        stroke-miterlimit: 10;
        stroke-width: 2px;
      }

      .st2 {
        fill: #dfe9ef;
      }

      .st3 {
        fill: #b0bdc6;
      }

      .st4, .st1 {
        fill: #dff0f3;
      }

      .st5 {
        fill: #2bb3bb;
      }

      .st6 {
        fill: #cad5dd;
      }

      .st7 {
        font-family: ObjektivMk1-Regular, 'Objektiv Mk1';
        font-size: 36px;
      }

      .st8 {
        fill: #5d6d74;
      }

      .st9 {
        fill: #ed4c5c;
      }

      .st1 {
        stroke: #2bb3bb;
      }

      .st10 {
        fill: #252525;
      }
    </style>
  </defs>
  <g>
    <rect class="st4" x="492.784" y="1" width="314.258" height="114.667"/>
    <path class="st5" d="M806.042,2v112.667h-312.258V2h312.258M808.042,0h-316.258v116.667h316.258V0h0Z"/>
  </g>
  <g>
    <path class="st8" d="M549.68,49.319c-.195-.446-10.752-6.726-10.763-6.734-1.49-1.095-1.672-2.161-.47-2.773,1.031-.525,1.917-2.21,2.585-4.015.122.053.251.065.381.027,2.804-.819,2.855-6.478.979-5.478,1.753-15.297-19.426-15.305-17.674,0-1.876-1.001-1.826,4.659.979,5.478.129.038.258.026.38-.026.667,1.804,1.552,3.489,2.583,4.014,1.212.616.973,1.629-.499,2.796-.49.389-7.327,4.199-9.255,5.489-.003.001-.01.006-.01.006h.001c-.797.533-1.363.977-1.468,1.217-.551,1.268-.75,3.302-.75,3.302h33.751s-.199-2.035-.749-3.302Z"/>
    <path d="M563.255,20.987h3.24v15.84c0,3,.702,5.274,2.106,6.822,1.404,1.548,3.462,2.322,6.174,2.322s4.77-.774,6.174-2.322c1.404-1.548,2.106-3.821,2.106-6.822v-15.84h3.24v16.128c0,3.72-1.026,6.618-3.078,8.694-2.052,2.076-4.902,3.114-8.55,3.114-3.6,0-6.402-1.038-8.406-3.114-2.004-2.076-3.006-4.974-3.006-8.694v-16.128Z"/>
    <path d="M602.818,47.447c-1.344.984-3.12,1.476-5.328,1.476-1.128,0-2.25-.157-3.366-.468s-2.01-.72-2.682-1.224l.468-2.7c.768.552,1.662.996,2.682,1.332,1.02.336,1.985.504,2.898.504,1.344,0,2.388-.234,3.132-.702.744-.468,1.116-1.11,1.116-1.926,0-.528-.121-.966-.36-1.314-.24-.348-.672-.672-1.296-.972-.625-.3-1.524-.618-2.7-.954-2.016-.6-3.456-1.319-4.32-2.16-.864-.84-1.296-1.932-1.296-3.276,0-1.632.606-2.921,1.818-3.87s2.862-1.422,4.95-1.422c.984,0,1.98.139,2.988.414,1.008.276,1.824.618,2.448,1.026l-.504,2.592c-1.536-.984-3.204-1.476-5.004-1.476-1.2,0-2.124.21-2.772.63-.648.42-.972,1.014-.972,1.782,0,.744.275,1.332.828,1.764.552.432,1.572.864,3.06,1.296,2.304.672,3.918,1.44,4.842,2.304.923.864,1.386,2.016,1.386,3.456,0,1.608-.672,2.904-2.016,3.888Z"/>
    <path d="M618.406,48.923c-2.041,0-3.811-.384-5.31-1.152-1.5-.768-2.652-1.866-3.456-3.294-.804-1.428-1.206-3.114-1.206-5.058,0-1.896.384-3.564,1.152-5.004s1.824-2.574,3.168-3.402,2.88-1.242,4.608-1.242c1.632,0,3.054.373,4.266,1.116,1.212.744,2.16,1.776,2.844,3.096s1.026,2.868,1.026,4.644c0,.312-.006.601-.018.864-.012.264-.03.54-.054.828h-13.968c.216,1.896.936,3.348,2.16,4.356,1.224,1.008,2.868,1.512,4.932,1.512,2.111,0,4.176-.492,6.192-1.476l.36,2.592c-.816.504-1.818.9-3.006,1.188s-2.418.432-3.69.432ZM613.33,33.856c-1.008.972-1.62,2.322-1.836,4.05h11.052c0-.264-.024-.516-.072-.756-.192-1.536-.75-2.712-1.674-3.528-.924-.815-2.13-1.224-3.618-1.224-1.561,0-2.844.486-3.852,1.458Z"/>
    <path d="M631.078,30.347h2.88l.036,3.744c.504-1.248,1.236-2.226,2.196-2.934.959-.708,2.052-1.062,3.276-1.062.36,0,.75.036,1.17.108.42.072.738.168.954.288l-.324,2.88c-.312-.12-.661-.222-1.044-.306-.384-.083-.756-.126-1.116-.126-1.536,0-2.749.576-3.636,1.728-.888,1.152-1.332,2.76-1.332,4.824v8.856h-3.06v-18Z"/>
    <path d="M663.873,47.447c-1.344.984-3.12,1.476-5.328,1.476-1.128,0-2.25-.157-3.365-.468-1.116-.312-2.011-.72-2.683-1.224l.468-2.7c.769.552,1.662.996,2.683,1.332,1.02.336,1.985.504,2.897.504,1.344,0,2.388-.234,3.132-.702.744-.468,1.116-1.11,1.116-1.926,0-.528-.12-.966-.359-1.314-.24-.348-.673-.672-1.296-.972-.625-.3-1.524-.618-2.7-.954-2.017-.6-3.456-1.319-4.32-2.16-.864-.84-1.296-1.932-1.296-3.276,0-1.632.605-2.921,1.818-3.87,1.211-.948,2.861-1.422,4.949-1.422.984,0,1.98.139,2.988.414,1.008.276,1.823.618,2.448,1.026l-.504,2.592c-1.536-.984-3.204-1.476-5.004-1.476-1.201,0-2.124.21-2.772.63-.647.42-.972,1.014-.972,1.782,0,.744.275,1.332.828,1.764.552.432,1.571.864,3.06,1.296,2.304.672,3.918,1.44,4.842,2.304.924.864,1.387,2.016,1.387,3.456,0,1.608-.673,2.904-2.017,3.888Z"/>
    <path d="M670.64,30.347h3.061v11.124c0,3.168,1.571,4.752,4.716,4.752,3.096,0,4.644-1.584,4.644-4.752v-11.124h3.061v11.124c0,2.328-.685,4.152-2.053,5.472-1.367,1.32-3.264,1.98-5.688,1.98s-4.32-.66-5.688-1.98c-1.367-1.32-2.052-3.144-2.052-5.472v-11.124Z"/>
    <path d="M692.492,19.187h3.06v14.436c.72-1.224,1.668-2.172,2.844-2.844s2.521-1.008,4.032-1.008c1.68,0,3.168.409,4.464,1.224,1.296.816,2.316,1.944,3.061,3.384.743,1.44,1.116,3.096,1.116,4.968,0,1.776-.402,3.39-1.206,4.842-.805,1.453-1.885,2.604-3.24,3.456-1.356.852-2.874,1.278-4.554,1.278-1.417,0-2.694-.336-3.834-1.008-1.141-.671-2.034-1.62-2.683-2.844l-.072,3.276h-2.987v-29.16ZM707.126,35.783c-.54-1.032-1.278-1.836-2.214-2.412-.937-.576-2.028-.864-3.276-.864-1.224,0-2.31.288-3.258.864-.948.576-1.692,1.38-2.232,2.412-.54,1.032-.81,2.22-.81,3.564s.27,2.532.81,3.564c.54,1.032,1.284,1.836,2.232,2.412.948.576,2.034.864,3.258.864,1.248,0,2.34-.288,3.276-.864.936-.576,1.674-1.38,2.214-2.412.54-1.032.81-2.22.81-3.564s-.27-2.532-.81-3.564Z"/>
    <path d="M716.288,30.347h2.88l.036,3.06c.504-1.152,1.277-2.046,2.321-2.682,1.045-.636,2.238-.954,3.582-.954,2.929,0,4.884,1.345,5.868,4.032.48-1.224,1.278-2.202,2.395-2.934,1.116-.732,2.382-1.098,3.798-1.098,2.136,0,3.78.666,4.932,1.998,1.152,1.332,1.729,3.234,1.729,5.706v10.872h-3.061v-10.332c0-3.696-1.439-5.544-4.319-5.544-1.513,0-2.7.528-3.564,1.584-.864,1.056-1.296,2.508-1.296,4.356v9.936h-3.06v-10.368c0-3.672-1.417-5.508-4.248-5.508-1.536,0-2.742.522-3.618,1.566-.877,1.044-1.314,2.49-1.314,4.338v9.972h-3.06v-18Z"/>
    <path d="M750.216,24.911c-.396-.408-.594-.924-.594-1.548s.198-1.14.594-1.548c.396-.408.894-.612,1.494-.612.624,0,1.128.204,1.512.612.384.409.576.924.576,1.548s-.192,1.14-.576,1.548c-.384.408-.888.612-1.512.612-.601,0-1.098-.204-1.494-.612ZM750.199,30.347h3.06v18h-3.06v-18Z"/>
    <path d="M761.503,32.975h-4.14v-2.628h4.14v-5.184h3.061v5.184h5.039v2.628h-5.039v15.372h-3.061v-15.372Z"/>
    <path d="M783.606,47.447c-1.344.984-3.12,1.476-5.328,1.476-1.128,0-2.25-.157-3.365-.468-1.116-.312-2.011-.72-2.683-1.224l.468-2.7c.769.552,1.662.996,2.683,1.332,1.02.336,1.985.504,2.897.504,1.344,0,2.388-.234,3.132-.702.744-.468,1.116-1.11,1.116-1.926,0-.528-.12-.966-.359-1.314-.24-.348-.673-.672-1.296-.972-.625-.3-1.524-.618-2.7-.954-2.017-.6-3.456-1.319-4.32-2.16-.864-.84-1.296-1.932-1.296-3.276,0-1.632.605-2.921,1.818-3.87,1.211-.948,2.861-1.422,4.949-1.422.984,0,1.98.139,2.988.414,1.008.276,1.823.618,2.448,1.026l-.504,2.592c-1.536-.984-3.204-1.476-5.004-1.476-1.201,0-2.124.21-2.772.63-.647.42-.972,1.014-.972,1.782,0,.744.275,1.332.828,1.764.552.432,1.571.864,3.06,1.296,2.304.672,3.918,1.44,4.842,2.304.924.864,1.387,2.016,1.387,3.456,0,1.608-.673,2.904-2.017,3.888Z"/>
    <path d="M558.845,97.847c-1.344.984-3.12,1.476-5.328,1.476-1.128,0-2.25-.157-3.366-.468s-2.01-.72-2.682-1.224l.468-2.7c.768.552,1.662.996,2.682,1.332,1.02.336,1.985.504,2.898.504,1.344,0,2.388-.234,3.132-.702.744-.468,1.116-1.11,1.116-1.926,0-.528-.121-.966-.36-1.314-.24-.348-.672-.672-1.296-.972-.625-.3-1.524-.618-2.7-.954-2.016-.6-3.456-1.319-4.32-2.16-.864-.84-1.296-1.932-1.296-3.276,0-1.632.606-2.921,1.818-3.87s2.862-1.422,4.95-1.422c.984,0,1.98.139,2.988.414,1.008.276,1.824.618,2.448,1.026l-.504,2.592c-1.536-.984-3.204-1.476-5.004-1.476-1.2,0-2.124.21-2.772.63-.648.42-.972,1.014-.972,1.782,0,.744.275,1.332.828,1.764.552.432,1.572.864,3.06,1.296,2.304.672,3.918,1.44,4.842,2.304.923.864,1.386,2.016,1.386,3.456,0,1.608-.672,2.904-2.016,3.888Z"/>
    <path d="M565.738,75.311c-.396-.408-.594-.924-.594-1.548s.198-1.14.594-1.548c.396-.408.894-.612,1.494-.612.624,0,1.128.204,1.512.612.383.409.576.924.576,1.548s-.192,1.14-.576,1.548c-.384.408-.888.612-1.512.612-.6,0-1.098-.204-1.494-.612ZM565.721,80.747h3.06v18h-3.06v-18Z"/>
    <path d="M592.577,97.703c0,6.792-3.264,10.188-9.792,10.188-1.32,0-2.61-.156-3.87-.468-1.26-.312-2.214-.696-2.862-1.152l.396-2.736c.839.527,1.818.936,2.934,1.224,1.116.288,2.25.432,3.402.432,2.28,0,3.972-.588,5.076-1.764,1.104-1.176,1.656-2.977,1.656-5.4v-2.556c-.72,1.224-1.668,2.172-2.844,2.844-1.176.672-2.52,1.008-4.032,1.008-1.656,0-3.138-.409-4.446-1.224-1.308-.816-2.334-1.95-3.078-3.402-.744-1.452-1.116-3.102-1.116-4.95,0-1.776.402-3.39,1.206-4.842.804-1.452,1.89-2.604,3.258-3.456,1.368-.852,2.88-1.278,4.536-1.278,1.368,0,2.622.336,3.762,1.008,1.14.672,2.058,1.62,2.754,2.844l.072-3.276h2.988v16.956ZM577.132,89.747c0,1.344.27,2.532.81,3.564.54,1.032,1.284,1.836,2.232,2.412.948.576,2.034.864,3.258.864,1.248,0,2.34-.288,3.276-.864.936-.576,1.674-1.38,2.214-2.412.54-1.032.81-2.22.81-3.564s-.27-2.532-.81-3.564c-.54-1.032-1.278-1.836-2.214-2.412-.936-.576-2.028-.864-3.276-.864-1.224,0-2.31.288-3.258.864-.948.576-1.692,1.38-2.232,2.412-.54,1.032-.81,2.22-.81,3.564Z"/>
    <path d="M599.057,80.747h2.88l.036,3.096c.504-1.152,1.29-2.052,2.358-2.7,1.067-.648,2.286-.972,3.654-.972,2.136,0,3.78.666,4.932,1.998s1.728,3.234,1.728,5.706v10.872h-3.06v-10.332c0-3.696-1.44-5.544-4.32-5.544-1.608,0-2.869.528-3.78,1.584-.912,1.056-1.368,2.508-1.368,4.356v9.936h-3.06v-18Z"/>
    <path d="M620.908,80.747h3.06v11.124c0,3.168,1.572,4.752,4.716,4.752,3.096,0,4.644-1.584,4.644-4.752v-11.124h3.06v11.124c0,2.328-.684,4.152-2.052,5.472s-3.264,1.98-5.688,1.98-4.32-.66-5.688-1.98c-1.368-1.32-2.052-3.144-2.052-5.472v-11.124Z"/>
    <path d="M642.76,80.747h2.879l.072,3.492c.695-1.32,1.645-2.328,2.844-3.024,1.199-.696,2.58-1.044,4.141-1.044,1.68,0,3.168.409,4.463,1.224,1.297.816,2.316,1.944,3.061,3.384.744,1.44,1.117,3.096,1.117,4.968,0,1.776-.402,3.39-1.207,4.842-.805,1.453-1.885,2.604-3.24,3.456s-2.873,1.278-4.553,1.278c-1.418,0-2.684-.331-3.799-.99s-2.022-1.602-2.719-2.826v12.06h-3.059v-26.82ZM655.18,95.723c.936-.576,1.674-1.38,2.213-2.412.541-1.032.811-2.22.811-3.564s-.27-2.532-.811-3.564c-.539-1.032-1.277-1.836-2.213-2.412-.938-.576-2.029-.864-3.277-.864-1.223,0-2.309.288-3.258.864-.947.576-1.691,1.38-2.231,2.412-.54,1.032-.81,2.22-.81,3.564s.27,2.532.81,3.564c.54,1.032,1.284,1.836,2.231,2.412.949.576,2.035.864,3.258.864,1.248,0,2.34-.288,3.277-.864Z"/>
    <path d="M675.842,83.375h-3.708v-2.628h3.708v-2.88c0-2.784.612-4.89,1.836-6.318,1.225-1.427,3-2.142,5.328-2.142.696,0,1.368.066,2.017.198.647.132,1.224.318,1.728.558l-.324,2.556c-1.08-.408-2.136-.612-3.168-.612-1.536,0-2.646.48-3.33,1.44-.684.96-1.025,2.533-1.025,4.716v2.484h5.615v2.628h-5.615v15.372h-3.061v-15.372Z"/>
    <path d="M704.714,94.588c-.841,1.453-1.975,2.604-3.402,3.456s-3.018,1.278-4.77,1.278c-1.8,0-3.408-.42-4.824-1.26s-2.538-1.98-3.366-3.42-1.241-3.072-1.241-4.896c0-1.8.419-3.42,1.26-4.86.84-1.44,1.974-2.586,3.401-3.438,1.428-.852,3.019-1.278,4.771-1.278,1.8,0,3.414.42,4.842,1.26,1.428.84,2.55,1.98,3.366,3.42.815,1.44,1.224,3.072,1.224,4.896,0,1.776-.42,3.39-1.26,4.842ZM691.052,93.311c.54,1.032,1.284,1.836,2.232,2.412.947.576,2.034.864,3.258.864,1.247,0,2.34-.288,3.276-.864.936-.576,1.674-1.38,2.214-2.412.54-1.032.81-2.22.81-3.564s-.27-2.532-.81-3.564c-.54-1.032-1.278-1.836-2.214-2.412-.937-.576-2.029-.864-3.276-.864-1.224,0-2.311.288-3.258.864-.948.576-1.692,1.38-2.232,2.412-.54,1.032-.81,2.22-.81,3.564s.27,2.532.81,3.564Z"/>
    <path d="M711.194,80.747h2.88l.036,3.744c.504-1.248,1.235-2.226,2.195-2.934.96-.708,2.053-1.062,3.276-1.062.36,0,.75.036,1.17.108.42.072.738.168.954.288l-.324,2.88c-.312-.12-.66-.222-1.044-.306-.384-.083-.756-.126-1.116-.126-1.536,0-2.748.576-3.636,1.728-.888,1.152-1.332,2.76-1.332,4.824v8.856h-3.06v-18Z"/>
    <path d="M726.206,80.747h2.88l.036,3.06c.504-1.152,1.277-2.046,2.321-2.682,1.045-.636,2.238-.954,3.582-.954,2.929,0,4.884,1.345,5.868,4.032.48-1.224,1.278-2.202,2.395-2.934,1.116-.732,2.382-1.098,3.798-1.098,2.136,0,3.78.666,4.932,1.998,1.152,1.332,1.729,3.234,1.729,5.706v10.872h-3.061v-10.332c0-3.696-1.439-5.544-4.319-5.544-1.513,0-2.7.528-3.564,1.584-.864,1.056-1.296,2.508-1.296,4.356v9.936h-3.06v-10.368c0-3.672-1.417-5.508-4.248-5.508-1.536,0-2.742.522-3.618,1.566-.877,1.044-1.314,2.49-1.314,4.338v9.972h-3.06v-18Z"/>
  </g>
  <g>
    <rect class="st4" x="463.746" y="202.864" width="375.306" height="114.667"/>
    <path class="st5" d="M838.053,203.864v112.667h-373.306v-112.667h373.306M840.053,201.864h-377.306v116.667h377.306v-116.667h0Z"/>
  </g>
  <text class="st7" transform="translate(505.169 247.69)"><tspan x="0" y="0">Legacy backend </tspan><tspan x="-3.257" y="50.4">processes signup</tspan></text>
  <g>
    <rect class="st4" x="463.746" y="652.744" width="375.306" height="114.667"/>
    <path class="st5" d="M838.053,653.745v112.667h-373.306v-112.667h373.306M840.053,651.745h-377.306v116.667h377.306v-116.667h0Z"/>
  </g>
  <text class="st7" transform="translate(487.602 697.571)"><tspan x="0" y="0">CDC tool monitors </tspan><tspan x="-.235" y="50.4">database changes</tspan></text>
  <g>
    <rect class="st4" x="463.746" y="1037.323" width="375.306" height="114.666"/>
    <path class="st5" d="M838.053,1038.323v112.667h-373.306v-112.667h373.306M840.053,1036.323h-377.306v116.667h377.306v-116.667h0Z"/>
  </g>
  <text class="st7" transform="translate(533.951 1082.15)"><tspan x="0" y="0">Audit Service </tspan><tspan x="-43.019" y="50.4">audits transaction</tspan></text>
  <g>
    <rect class="st4" x="926.492" y="995.581" width="375.307" height="182.428"/>
    <path class="st5" d="M1300.799,996.581v180.428h-373.306v-180.428h373.306M1302.799,994.581h-377.306v184.428h377.306v-184.428h0Z"/>
  </g>
  <text class="st7" transform="translate(946.064 1046.521)"><tspan x="0" y="0">Some other service </tspan><tspan x="28.691" y="50.4">does something </tspan><tspan x="6.174" y="100.8">else with the event</tspan></text>
  <g>
    <rect class="st4" x="1" y="995.581" width="375.306" height="182.428"/>
    <path class="st5" d="M375.307,996.581v180.428H2v-180.428h373.307M377.307,994.581H0v184.428h377.307v-184.428h0Z"/>
  </g>
  <text class="st7" transform="translate(50.091 1046.521)"><tspan x="0" y="0">Welcome Email </tspan><tspan x="19.422" y="50.4">Service sends </tspan><tspan x="89.477" y="100.8">email</tspan></text>
  <g>
    <rect class="st4" x="21.037" y="1264.164" width="335.233" height="95.518"/>
    <path class="st5" d="M355.27,1265.164v93.518H22.037v-93.518h333.233M357.27,1263.164H20.037v97.518h337.233v-97.518h0Z"/>
  </g>
  <g>
    <g>
      <path class="st3" d="M75.522,1324.589l10.416-10.984-8.02-11.654c-.384.509-.667,1.21-.748,1.983l-1.965,18.624c-.08.766.048,1.487.316,2.032Z"/>
      <path class="st3" d="M110.447,1299.968l-15.06,14.178,11.868,16.238c.65-.553,1.119-1.419,1.23-2.463l2.675-25.36c.11-1.052-.178-1.97-.712-2.593Z"/>
      <path class="st6" d="M89.657,1319.285l-3.72-5.681-10.415,10.985c.247.503.615.86,1.057.945l28.582,5.45c.763.146,1.501-.096,2.094-.599l-11.869-16.239-5.73,5.139Z"/>
      <path class="st2" d="M108.52,1299.144l-29.37,2.01c-.451.031-.883.336-1.231.796l8.019,11.654,3.72,5.681,5.73-5.139,15.06-14.178c-.479-.556-1.15-.876-1.927-.824Z"/>
      <polygon class="st9" points="90.438 1313.347 83.84 1303.502 86.59 1303.469 86.792 1295.421 95.282 1295.025 95.065 1303.638 99.766 1303.731 90.438 1313.347"/>
    </g>
    <path d="M123.062,1298.266h16.848v2.771h-13.608v9.145h12.168v2.771h-12.168v9.9h14.148v2.771h-17.388v-27.359Z"/>
    <path d="M146.39,1307.625h2.88l.036,3.061c.504-1.152,1.278-2.046,2.322-2.683,1.044-.636,2.238-.954,3.582-.954,2.928,0,4.884,1.345,5.868,4.032.479-1.224,1.278-2.201,2.394-2.934,1.116-.732,2.382-1.099,3.798-1.099,2.136,0,3.78.666,4.932,1.998,1.152,1.332,1.728,3.234,1.728,5.706v10.872h-3.06v-10.332c0-3.695-1.44-5.544-4.32-5.544-1.512,0-2.7.528-3.564,1.584-.864,1.057-1.296,2.509-1.296,4.356v9.936h-3.06v-10.368c0-3.672-1.417-5.508-4.248-5.508-1.536,0-2.742.522-3.618,1.566s-1.314,2.49-1.314,4.338v9.972h-3.06v-18Z"/>
    <path d="M197.618,1325.625h-2.988l-.072-3.275c-.72,1.224-1.668,2.172-2.844,2.844-1.176.672-2.52,1.008-4.032,1.008-1.656,0-3.138-.408-4.446-1.224-1.308-.816-2.334-1.95-3.078-3.402-.744-1.452-1.116-3.102-1.116-4.95,0-1.775.402-3.39,1.206-4.842.804-1.452,1.89-2.604,3.258-3.456,1.368-.852,2.88-1.278,4.536-1.278,1.368,0,2.622.337,3.762,1.009,1.14.672,2.058,1.619,2.754,2.844l.072-3.276h2.988v18ZM182.984,1320.189c.54,1.032,1.284,1.836,2.232,2.412.948.575,2.034.863,3.258.863,1.248,0,2.34-.288,3.276-.863.936-.576,1.674-1.38,2.214-2.412s.81-2.22.81-3.564-.27-2.531-.81-3.563-1.278-1.836-2.214-2.412-2.028-.864-3.276-.864c-1.224,0-2.31.288-3.258.864s-1.692,1.38-2.232,2.412-.81,2.22-.81,3.563.27,2.532.81,3.564Z"/>
    <path d="M204.115,1302.189c-.396-.408-.594-.924-.594-1.548s.198-1.14.594-1.549c.396-.407.894-.611,1.494-.611.624,0,1.128.204,1.512.611.383.409.576.925.576,1.549s-.192,1.14-.576,1.548c-.384.408-.888.611-1.512.611-.6,0-1.098-.203-1.494-.611ZM204.098,1307.625h3.06v18h-3.06v-18Z"/>
    <path d="M213.638,1296.465h3.06v29.16h-3.06v-29.16Z"/>
    <path d="M240.961,1324.726c-1.344.983-3.12,1.476-5.328,1.476-1.128,0-2.25-.156-3.366-.468s-2.01-.72-2.682-1.225l.468-2.699c.768.552,1.662.996,2.682,1.332,1.02.336,1.985.504,2.897.504,1.344,0,2.388-.234,3.132-.702s1.116-1.11,1.116-1.926c0-.528-.12-.966-.359-1.314-.24-.348-.673-.672-1.296-.972-.625-.3-1.524-.618-2.7-.954-2.016-.6-3.456-1.319-4.32-2.16-.864-.84-1.296-1.932-1.296-3.276,0-1.632.606-2.921,1.818-3.869s2.862-1.423,4.95-1.423c.984,0,1.98.139,2.988.414,1.008.276,1.823.618,2.448,1.026l-.504,2.592c-1.536-.983-3.204-1.476-5.004-1.476-1.201,0-2.125.21-2.772.63-.648.42-.972,1.014-.972,1.782,0,.744.275,1.332.828,1.764.551.432,1.572.864,3.06,1.296,2.304.672,3.918,1.44,4.842,2.304.924.864,1.387,2.017,1.387,3.456,0,1.608-.673,2.904-2.017,3.889Z"/>
    <path d="M256.549,1326.201c-2.04,0-3.811-.384-5.311-1.152-1.5-.768-2.651-1.865-3.456-3.294-.804-1.428-1.205-3.113-1.205-5.058,0-1.896.383-3.564,1.151-5.004.768-1.44,1.824-2.574,3.168-3.402s2.88-1.242,4.608-1.242c1.632,0,3.054.373,4.266,1.116,1.212.744,2.16,1.776,2.844,3.097.685,1.319,1.026,2.868,1.026,4.644,0,.312-.006.601-.018.864-.013.264-.03.54-.055.828h-13.968c.216,1.896.937,3.348,2.16,4.355s2.867,1.512,4.932,1.512c2.112,0,4.177-.491,6.192-1.476l.36,2.592c-.816.504-1.818.9-3.007,1.188-1.188.288-2.418.432-3.689.432ZM251.473,1311.135c-1.008.973-1.62,2.322-1.836,4.051h11.052c0-.264-.024-.517-.072-.756-.192-1.536-.75-2.712-1.674-3.528-.924-.815-2.13-1.225-3.618-1.225-1.56,0-2.844.486-3.852,1.458Z"/>
    <path d="M269.221,1307.625h2.88l.036,3.097c.504-1.152,1.29-2.053,2.357-2.7,1.068-.648,2.286-.973,3.654-.973,2.136,0,3.78.666,4.932,1.998,1.152,1.332,1.729,3.234,1.729,5.706v10.872h-3.061v-10.332c0-3.695-1.439-5.544-4.319-5.544-1.608,0-2.868.528-3.78,1.584-.912,1.057-1.368,2.509-1.368,4.356v9.936h-3.06v-18Z"/>
    <path d="M292.943,1310.253h-4.14v-2.628h4.14v-5.184h3.061v5.184h5.039v2.628h-5.039v15.372h-3.061v-15.372Z"/>
  </g>
  <g>
    <rect class="st4" x="511.088" y="854.608" width="280.623" height="95.518"/>
    <path class="st5" d="M790.711,855.608v93.518h-278.623v-93.518h278.623M792.711,853.608h-282.623v97.518h282.623v-97.518h0Z"/>
  </g>
  <text class="st7" transform="translate(537.119 913.424)"><tspan x="0" y="0">Event Broker</tspan></text>
  <g id="Trades">
    <ellipse class="st1" cx="651.399" cy="424.036" rx="141.113" ry="20.309"/>
    <path class="st1" d="M792.513,546.239c0,11.216-63.179,20.309-141.113,20.309s-141.113-9.093-141.113-20.309"/>
    <rect class="st4" x="510.286" y="424.036" width="282.227" height="124.039"/>
    <line class="st1" x1="510.286" y1="424.036" x2="510.286" y2="546.239"/>
    <line class="st1" x1="792.513" y1="424.036" x2="792.513" y2="546.239"/>
    <ellipse class="st1" cx="651.399" cy="424.036" rx="141.113" ry="20.309"/>
  </g>
  <text class="st7" transform="translate(586.438 491.066)"><tspan x="0" y="0">Legacy </tspan><tspan x="-23.724" y="50.4">Database</tspan></text>
  <g>
    <line class="st0" x1="649.913" y1="116.667" x2="649.913" y2="199.459"/>
    <path class="st10" d="M640.313,185.789c.465-.297,1.084-.158,1.381.309l8.219,12.904,8.219-12.904c.297-.467.916-.605,1.381-.309.465.297.6.92.307,1.383l-9.062,14.229c-.184.287-.502.463-.844.463s-.66-.176-.844-.463l-9.062-14.229c-.105-.168-.156-.354-.156-.537,0-.33.164-.654.463-.846Z"/>
  </g>
  <g>
    <line class="st0" x1="651.399" y1="318.53" x2="651.399" y2="401.322"/>
    <path class="st10" d="M641.8,387.653c.465-.297,1.084-.158,1.381.309l8.219,12.904,8.219-12.904c.297-.467.916-.605,1.381-.309.465.297.6.92.307,1.383l-9.062,14.229c-.184.287-.502.463-.844.463s-.66-.176-.844-.463l-9.062-14.229c-.105-.168-.156-.354-.156-.537,0-.33.164-.654.463-.846Z"/>
  </g>
  <g>
    <line class="st0" x1="649.913" y1="566.548" x2="649.913" y2="649.34"/>
    <path class="st10" d="M640.313,635.67c.465-.297,1.084-.158,1.381.309l8.219,12.904,8.219-12.904c.297-.467.916-.605,1.381-.309.465.297.6.92.307,1.383l-9.062,14.229c-.184.287-.502.463-.844.463s-.66-.176-.844-.463l-9.062-14.229c-.105-.168-.156-.354-.156-.537,0-.33.164-.654.463-.846Z"/>
  </g>
  <g>
    <line class="st0" x1="649.913" y1="768.411" x2="649.913" y2="851.203"/>
    <path class="st10" d="M640.313,837.534c.465-.297,1.084-.158,1.381.309l8.219,12.904,8.219-12.904c.297-.467.916-.605,1.381-.309.465.297.6.92.307,1.383l-9.062,14.229c-.184.287-.502.463-.844.463s-.66-.176-.844-.463l-9.062-14.229c-.105-.168-.156-.354-.156-.537,0-.33.164-.654.463-.846Z"/>
  </g>
  <g>
    <line class="st0" x1="649.913" y1="951.983" x2="649.913" y2="1034.775"/>
    <path class="st10" d="M640.313,1021.105c.465-.297,1.084-.158,1.381.309l8.219,12.904,8.219-12.904c.297-.467.916-.605,1.381-.309.465.297.6.92.307,1.383l-9.062,14.229c-.184.287-.502.463-.844.463s-.66-.176-.844-.463l-9.062-14.229c-.105-.168-.156-.354-.156-.537,0-.33.164-.654.463-.846Z"/>
  </g>
  <g>
    <line class="st0" x1="188.653" y1="1179.009" x2="188.653" y2="1261.801"/>
    <path class="st10" d="M179.054,1248.131c.465-.297,1.084-.158,1.381.309l8.219,12.904,8.219-12.904c.297-.467.916-.605,1.381-.309.465.297.6.92.307,1.383l-9.062,14.229c-.184.287-.502.463-.844.463s-.66-.176-.844-.463l-9.062-14.229c-.105-.168-.156-.354-.156-.537,0-.33.164-.654.463-.846Z"/>
  </g>
  <g>
    <path class="st0" d="M510.088,902.367s-302.6-3.654-321.032,89.846"/>
    <path class="st10" d="M182.287,976.974c.513-.203,1.094.051,1.297.566l5.613,14.232,10.524-11.105c.38-.402,1.014-.42,1.414-.04.4.38.414,1.017.038,1.416l-11.604,12.244c-.235.247-.581.359-.916.294-.336-.065-.615-.298-.74-.615l-6.19-15.693c-.072-.185-.086-.377-.051-.557.063-.324.286-.611.615-.742Z"/>
  </g>
  <g>
    <path class="st0" d="M792.711,902.367s302.6-3.654,321.032,89.846"/>
    <path class="st10" d="M1101.663,980.627c.4-.38,1.034-.362,1.414.04l10.524,11.105,5.613-14.232c.203-.515.784-.769,1.297-.566.513.203.764.789.564,1.299l-6.19,15.693c-.126.317-.405.55-.74.615-.336.065-.682-.047-.916-.294l-11.604-12.244c-.135-.145-.221-.317-.256-.498-.063-.324.037-.674.294-.918Z"/>
  </g>
</svg>